<svg width="261" height="219" viewBox="0 0 261 219" fill="none" xmlns="http://www.w3.org/2000/svg">
<g filter="url(#filter0_d_fid_chk)">
<rect x="50" y="30" width="161" height="160" rx="44" fill="black" shape-rendering="crispEdges"/>
<g transform="translate(53 48)">
<path d="M77.5 97.9766C57.918 97.9766 41.6406 81.6992 41.6406 62.1172C41.6406 42.5 57.8828 26.2578 77.4648 26.2578C97.082 26.2578 113.359 42.5 113.359 62.1172C113.359 81.6992 97.1172 97.9766 77.5 97.9766ZM77.5 92C94.0938 92 107.383 78.7109 107.383 62.1172C107.383 45.5234 94.0586 32.2344 77.4648 32.2344C60.8711 32.2344 47.6523 45.5234 47.6523 62.1172C47.6523 78.7109 60.9062 92 77.5 92ZM73.6328 78.8164C72.4727 78.8164 71.5234 78.3242 70.6445 77.1641L62.0664 66.6172C61.5742 65.9492 61.2578 65.2109 61.2578 64.4375C61.2578 62.8906 62.4531 61.6602 63.9648 61.6602C64.9492 61.6602 65.7227 61.9414 66.5664 63.0664L73.4922 72.0312L88.082 48.6172C88.75 47.5977 89.6289 47.0352 90.5078 47.0352C91.9844 47.0352 93.3906 48.0547 93.3906 49.6367C93.3906 50.4102 92.9336 51.1836 92.5469 51.8867L76.4805 77.1641C75.7773 78.2539 74.793 78.8164 73.6328 78.8164Z" fill="#30D158"/>
</g>
</g>
<defs>
<filter id="filter0_d_fid_chk" x="0" y="0" width="261" height="260" filterUnits="userSpaceOnUse" color-interpolation-filters="sRGB">
<feFlood flood-opacity="0" result="BackgroundImageFix"/>
<feColorMatrix in="SourceAlpha" type="matrix" values="0 0 0 0 0 0 0 0 0 0 0 0 0 0 0 0 0 0 127 0" result="hardAlpha"/>
<feOffset dy="20"/>
<feGaussianBlur stdDeviation="25"/>
<feComposite in2="hardAlpha" operator="out"/>
<feColorMatrix type="matrix" values="0 0 0 0 0 0 0 0 0 0 0 0 0 0 0 0 0 0 0.2 0"/>
<feBlend mode="normal" in2="BackgroundImageFix" result="effect1_dropShadow_fid_chk"/>
<feBlend mode="normal" in="SourceGraphic" in2="effect1_dropShadow_fid_chk" result="shape"/>
</filter>
</defs>
</svg>
