<svg width="261" height="219" viewBox="0 0 261 219" fill="none" xmlns="http://www.w3.org/2000/svg">
<g filter="url(#filter0_d_2933_96432)">
<rect x="50" y="30" width="161" height="160" rx="44" fill="black" shape-rendering="crispEdges"/>
<path d="M100.277 97.9763C101.105 97.9763 101.553 97.4933 101.553 96.6652V87.3844C101.553 82.8992 103.899 80.5531 108.384 80.5531H117.7C118.528 80.5531 119.011 80.1046 119.011 79.2765C119.011 78.4485 118.528 78 117.7 78H108.315C102.209 78 99 81.1741 99 87.2464V96.6652C99 97.4933 99.4485 97.9763 100.277 97.9763ZM161.723 97.9763C162.551 97.9763 163 97.4933 163 96.6652V87.2464C163 81.2431 159.826 78 153.719 78H144.3C143.472 78 142.989 78.4485 142.989 79.2765C142.989 80.1046 143.472 80.5531 144.3 80.5531H153.616C157.963 80.5531 160.447 82.8992 160.447 87.3844V96.6652C160.447 97.4933 160.895 97.9763 161.723 97.9763ZM128.188 114.64H128.499C131.293 114.64 132.708 113.26 132.708 110.431V99.8394C132.708 99.0458 132.328 98.6663 131.535 98.6663C130.776 98.6663 130.362 99.0458 130.362 99.8394V110.742C130.362 111.673 129.603 112.26 128.844 112.26H127.671C127.015 112.26 126.532 112.743 126.532 113.398C126.532 114.226 127.05 114.64 128.188 114.64ZM118.597 106.705C119.632 106.705 120.287 106.05 120.287 105.015V100.426C120.287 99.3563 119.632 98.7008 118.597 98.7008C117.596 98.7008 116.941 99.3908 116.941 100.426V105.015C116.941 106.05 117.596 106.705 118.597 106.705ZM143.093 106.705C144.093 106.705 144.749 106.05 144.749 105.015V100.426C144.749 99.3908 144.093 98.7008 143.093 98.7008C142.058 98.7008 141.368 99.3563 141.368 100.426V105.015C141.368 106.05 142.058 106.705 143.093 106.705ZM130.707 125.198C134.502 125.198 138.297 123.611 141.092 120.816C141.299 120.644 141.506 120.333 141.506 119.885C141.506 119.195 140.988 118.746 140.367 118.746C139.988 118.746 139.677 118.85 139.229 119.333C137.158 121.403 133.95 122.886 130.707 122.886C127.464 122.886 124.289 121.403 122.185 119.333C121.771 118.884 121.46 118.746 121.046 118.746C120.425 118.746 119.908 119.195 119.908 119.885C119.908 120.299 120.115 120.609 120.322 120.816C123.047 123.645 126.912 125.198 130.707 125.198ZM108.315 142H117.7C118.528 142 119.011 141.551 119.011 140.723C119.011 139.895 118.528 139.447 117.7 139.447H108.384C103.899 139.447 101.553 137.101 101.553 132.581V123.335C101.553 122.507 101.105 121.989 100.277 121.989C99.4485 121.989 99 122.507 99 123.335V132.719C99 138.826 102.209 142 108.315 142ZM144.3 142H153.719C159.826 142 163 138.722 163 132.719V123.335C163 122.507 162.551 121.989 161.723 121.989C160.895 121.989 160.447 122.507 160.447 123.335V132.581C160.447 137.101 157.963 139.447 153.616 139.447H144.3C143.472 139.447 142.989 139.895 142.989 140.723C142.989 141.551 143.472 142 144.3 142Z" fill="white"/>
</g>
<defs>
<filter id="filter0_d_2933_96432" x="0" y="0" width="261" height="260" filterUnits="userSpaceOnUse" color-interpolation-filters="sRGB">
<feFlood flood-opacity="0" result="BackgroundImageFix"/>
<feColorMatrix in="SourceAlpha" type="matrix" values="0 0 0 0 0 0 0 0 0 0 0 0 0 0 0 0 0 0 127 0" result="hardAlpha"/>
<feOffset dy="20"/>
<feGaussianBlur stdDeviation="25"/>
<feComposite in2="hardAlpha" operator="out"/>
<feColorMatrix type="matrix" values="0 0 0 0 0 0 0 0 0 0 0 0 0 0 0 0 0 0 0.2 0"/>
<feBlend mode="normal" in2="BackgroundImageFix" result="effect1_dropShadow_2933_96432"/>
<feBlend mode="normal" in="SourceGraphic" in2="effect1_dropShadow_2933_96432" result="shape"/>
</filter>
</defs>
</svg>
