<svg width="155" height="157" viewBox="0 0 155 157" fill="none" xmlns="http://www.w3.org/2000/svg">
<rect x="-0.5" y="-0.5" width="156" height="158" fill="#252525"/>
<path d="M77.5 97.9766C57.918 97.9766 41.6406 81.6992 41.6406 62.1172C41.6406 42.5 57.8828 26.2578 77.4648 26.2578C97.082 26.2578 113.359 42.5 113.359 62.1172C113.359 81.6992 97.1172 97.9766 77.5 97.9766ZM77.5 92C94.0938 92 107.383 78.7109 107.383 62.1172C107.383 45.5234 94.0586 32.2344 77.4648 32.2344C60.8711 32.2344 47.6523 45.5234 47.6523 62.1172C47.6523 78.7109 60.9062 92 77.5 92ZM73.6328 78.8164C72.4727 78.8164 71.5234 78.3242 70.6445 77.1641L62.0664 66.6172C61.5742 65.9492 61.2578 65.2109 61.2578 64.4375C61.2578 62.8906 62.4531 61.6602 63.9648 61.6602C64.9492 61.6602 65.7227 61.9414 66.5664 63.0664L73.4922 72.0312L88.082 48.6172C88.75 47.5977 89.6289 47.0352 90.5078 47.0352C91.9844 47.0352 93.3906 48.0547 93.3906 49.6367C93.3906 50.4102 92.9336 51.1836 92.5469 51.8867L76.4805 77.1641C75.7773 78.2539 74.793 78.8164 73.6328 78.8164Z" fill="#30D158"/>
<path d="M49.5135 133.5V121.522H57.1503V123.323H51.6552V126.868H56.6771V128.611H51.6552V133.5H49.5135ZM60.8927 133.649C59.1661 133.649 57.9127 132.587 57.9127 130.935V130.918C57.9127 129.3 59.1495 128.354 61.3575 128.221L63.69 128.08V127.299C63.69 126.395 63.1007 125.896 61.9884 125.896C61.0421 125.896 60.4278 126.237 60.2203 126.834L60.212 126.868H58.2613L58.2696 126.793C58.4688 125.266 59.9298 124.253 62.088 124.253C64.4205 124.253 65.732 125.382 65.732 127.299V133.5H63.69V132.255H63.5489C63.0509 133.135 62.088 133.649 60.8927 133.649ZM59.9547 130.835C59.9547 131.607 60.6104 132.064 61.5235 132.064C62.7686 132.064 63.69 131.25 63.69 130.171V129.441L61.648 129.574C60.4942 129.648 59.9547 130.072 59.9547 130.819V130.835ZM71.699 133.683C68.9681 133.683 67.3577 131.915 67.3577 128.951V128.935C67.3577 126.004 68.9598 124.253 71.6907 124.253C74.0232 124.253 75.4178 125.548 75.6502 127.424V127.457H73.6995L73.6912 127.432C73.5003 126.552 72.8279 125.921 71.699 125.921C70.2879 125.921 69.4578 127.034 69.4578 128.935V128.951C69.4578 130.877 70.2962 132.006 71.699 132.006C72.7698 132.006 73.4256 131.516 73.6829 130.562L73.6995 130.528L75.6502 130.52L75.6336 130.586C75.3348 132.446 73.9983 133.683 71.699 133.683ZM81.0942 133.683C78.3965 133.683 76.7612 131.873 76.7612 128.984V128.976C76.7612 126.121 78.4131 124.253 80.9946 124.253C83.5762 124.253 85.1699 126.062 85.1699 128.802V129.482H78.8281C78.853 131.109 79.7329 132.056 81.1357 132.056C82.2563 132.056 82.8955 131.491 83.0947 131.076L83.1196 131.018H85.0869L85.062 131.093C84.7715 132.263 83.5596 133.683 81.0942 133.683ZM81.0195 125.872C79.8657 125.872 79.0024 126.652 78.8447 128.096H83.1528C83.0117 126.61 82.1733 125.872 81.0195 125.872ZM91.1689 133.5V121.522H93.3105V133.5H91.1689ZM95.8575 133.5V121.522H100.348C103.909 121.522 105.984 123.697 105.984 127.449V127.465C105.984 131.3 103.934 133.5 100.348 133.5H95.8575ZM97.9991 131.699H100.066C102.448 131.699 103.801 130.188 103.801 127.499V127.482C103.801 124.851 102.415 123.323 100.066 123.323H97.9991V131.699Z" fill="white"/>
</svg>
