<svg width="24" height="24" viewBox="0 0 24 24" fill="none" xmlns="http://www.w3.org/2000/svg">
<path fill-rule="evenodd" clip-rule="evenodd" d="M16 2.75C14.2051 2.75 12.75 4.20507 12.75 6C12.75 7.79493 14.2051 9.25 16 9.25C16.8876 9.25 17.6921 8.89417 18.2787 8.31738C18.2849 8.31072 18.2912 8.30415 18.2977 8.29767C18.3041 8.29119 18.3107 8.28485 18.3174 8.27866C18.8942 7.69212 19.25 6.88762 19.25 6C19.25 4.20507 17.7949 2.75 16 2.75ZM19.8472 8.78654C20.4151 8.00381 20.75 7.04101 20.75 6C20.75 3.37665 18.6234 1.25 16 1.25C13.3766 1.25 11.25 3.37665 11.25 6C11.25 8.62335 13.3766 10.75 16 10.75C17.041 10.75 18.0038 10.4151 18.7865 9.8472L20.4697 11.5303C20.7626 11.8232 21.2374 11.8232 21.5303 11.5303C21.8232 11.2374 21.8232 10.7626 21.5303 10.4697L19.8472 8.78654ZM6 4.75C5.40326 4.75 4.83097 4.98705 4.40901 5.40901C3.98705 5.83097 3.75 6.40326 3.75 7V11C3.75 11.4142 3.41421 11.75 3 11.75C2.58579 11.75 2.25 11.4142 2.25 11V7C2.25 6.00544 2.64509 5.05161 3.34835 4.34835C4.05161 3.64509 5.00544 3.25 6 3.25H8C8.41421 3.25 8.75 3.58579 8.75 4C8.75 4.41421 8.41421 4.75 8 4.75H6ZM5.25 13C5.25 12.5858 5.58579 12.25 6 12.25H9C9.41421 12.25 9.75 12.5858 9.75 13V14.5H12C12.4142 14.5 12.75 14.8358 12.75 15.25V21C12.75 21.4142 12.4142 21.75 12 21.75H3C2.58579 21.75 2.25 21.4142 2.25 21V17.25C2.25 16.8358 2.58579 16.5 3 16.5H5.25V13ZM6.75 20.25H8.25V13.75H6.75V20.25ZM9.75 20.25H11.25V16H9.75V20.25ZM5.25 20.25V18H3.75V20.25H5.25ZM21.75 18C21.75 18.9946 21.3549 19.9484 20.6517 20.6517C19.9484 21.3549 18.9946 21.75 18 21.75H16C15.5858 21.75 15.25 21.4142 15.25 21C15.25 20.5858 15.5858 20.25 16 20.25H18C18.5967 20.25 19.169 20.0129 19.591 19.591C20.0129 19.169 20.25 18.5967 20.25 18V15C20.25 14.5858 20.5858 14.25 21 14.25C21.4142 14.25 21.75 14.5858 21.75 15V18Z" fill="#69737B"/>
</svg>
