<svg width="24" height="24" viewBox="0 0 24 24" fill="none" xmlns="http://www.w3.org/2000/svg">
<path d="M8.96006 9.21899V6.98999C8.96006 5.27999 10.2301 3.81999 11.8301 3.73999C13.5701 3.63999 15.0301 5.02999 15.0301 6.76999V9.19999C15.0301 9.60999 15.3601 9.94999 15.7801 9.94999C16.1901 9.94999 16.5301 9.60999 16.5301 9.19999V6.76999C16.5301 4.16999 14.3501 2.09999 11.7401 2.22999C9.31006 2.34999 7.44006 4.48999 7.44006 6.96999V9.17999C7.44006 9.58999 7.77006 9.92999 8.19006 9.92999C8.60006 9.92999 8.94006 9.58999 8.94006 9.17999L8.96006 9.21899Z" fill="#69737B"/>
<path d="M16.0601 10.43C18.3001 12.67 18.3001 16.31 16.0601 18.56C13.8101 20.8 10.1701 20.8 7.92006 18.56C5.67006 16.31 5.67006 12.67 7.92006 10.42C10.1601 8.16999 13.8001 8.16999 16.0501 10.419C16.3401 10.709 16.8101 10.709 17.1101 10.418C17.4001 10.118 17.4001 9.64799 17.1091 9.34799C14.2691 6.50799 9.67906 6.50799 6.84906 9.34799C4.00006 12.17 4.00006 16.768 6.84006 19.59C9.67006 22.42 14.2601 22.42 17.0901 19.59C19.9201 16.75 19.9201 12.16 17.0901 9.32999C16.7901 9.02999 16.3201 9.02999 16.0201 9.32999C15.7201 9.61999 15.7201 10.09 16.0201 10.39L16.0601 10.43Z" fill="#69737B"/>
<path d="M12.7501 16.5V13.95C12.7501 13.53 12.4101 13.2 12.0001 13.2C11.5801 13.2 11.2501 13.53 11.2501 13.95V16.5C11.2501 16.91 11.5801 17.25 12.0001 17.25C12.4101 17.25 12.7501 16.91 12.7501 16.5Z" fill="#69737B"/>
<path d="M11.9901 11.681C11.1501 11.681 10.4801 12.351 10.4901 13.181C10.4801 14.001 11.1601 14.671 11.9801 14.671C12.8001 14.671 13.4801 13.991 13.4801 13.171C13.4801 12.341 12.8001 11.671 11.9701 11.671C11.5501 11.671 11.2201 12.001 11.2201 12.421C11.2201 12.831 11.5501 13.171 11.9701 13.171C11.9601 13.171 11.9701 13.161 11.9701 13.171C11.9701 13.161 11.9601 13.171 11.9601 13.171C12.3701 13.171 12.7101 12.831 12.7101 12.421C12.7101 12.001 12.3701 11.671 11.9601 11.671L11.9901 11.681Z" fill="#69737B"/>
</svg>
